<svg xmlns="http://www.w3.org/2000/svg" viewBox="0 19.299999237060547 190.25 38.70000076293945" data-asc="1.16" width="190.25" height="38.70000076293945"><defs/><g fill="#000000"><g transform="translate(0, 0)"><path d="M37.65 55.50L37.65 58.00L28.55 58.00L28.55 55.50L32.70 55.50L25.60 41.50L10.95 41.50L5.15 55.50L9.10 55.50L9.10 58.00L0 58.00L0 55.50L4.05 55.50L10.90 21.80L7.05 21.80L7.05 19.30L25.50 19.30L34.05 55.50L37.65 55.50M12 39.00L24.30 39.00L17.55 25.70L12 39.00ZM78.30 55.50L78.30 58.00L69.20 58.00L69.20 55.50L73.35 55.50L66.25 41.50L51.60 41.50L45.80 55.50L49.75 55.50L49.75 58.00L40.65 58.00L40.65 55.50L44.70 55.50L51.55 21.80L47.70 21.80L47.70 19.30L66.15 19.30L74.70 55.50L78.30 55.50M52.65 39.00L64.95 39.00L58.20 25.70L52.65 39.00ZM119.05 37.55L107.95 58.00L81.30 58.00L81.30 55.50L83.75 55.50L83.75 21.80L81.30 21.80L81.30 19.30L107.95 19.30L119.05 37.55M85.20 55.50L107.30 55.50L107.30 21.80L94.85 21.80L85.20 55.50ZM143.05 37.75L138 55.50L141.90 55.50L141.90 58.00L132.75 58.00L132.75 55.50L136.25 55.50L132.65 38.10L122.05 19.30L136.15 19.30L136.15 21.80L132.75 21.80L132.75 37.70L142.85 37.70L142.85 21.80L139.25 21.80L139.25 19.30L153.60 19.30L143.05 37.75ZM190.25 55.50L190.25 58.00L181.15 58.00L181.15 55.50L185.30 55.50L178.20 41.50L163.55 41.50L157.75 55.50L161.70 55.50L161.70 58.00L152.60 58.00L152.60 55.50L156.65 55.50L163.50 21.80L159.65 21.80L159.65 19.30L178.10 19.30L186.65 55.50L190.25 55.50M164.60 39.00L176.90 39.00L170.15 25.70L164.60 39.00Z"/></g></g></svg>