<svg xmlns="http://www.w3.org/2000/svg" viewBox="0.05454545468091965 12.773124694824219 240.39210510253906 45.05158233642578" data-asc="1.0498046875" width="240.39210510253906" height="45.05158233642578"><defs/><g fill="#000000"><g transform="translate(0, 0)"><path d="M48.97 49.66Q49.02 49.85 48.93 49.95Q48.83 50.05 48.93 50.24Q48.29 50.88 47.07 51.22Q46.68 51.37 46.19 51.37Q45.90 51.37 45.61 51.32Q45.31 51.27 45.07 51.32Q44.68 51.46 44.51 51.81Q44.34 52.15 44.24 52.54Q43.70 52.78 43.19 52.86Q42.68 52.93 42.24 53.13Q42.04 53.22 41.92 53.30Q41.80 53.37 41.55 53.47Q41.31 53.56 41.09 53.56Q40.87 53.56 40.67 53.86Q40.04 54.00 39.40 54.27Q38.77 54.54 38.13 54.71Q37.50 54.88 36.87 54.91Q36.23 54.93 35.64 54.59Q34.81 53.61 34.42 52.95Q34.03 52.29 33.50 51.66Q33.30 51.42 33.08 51.20Q32.86 50.98 32.76 50.73Q32.42 50.05 32.23 49.76Q32.03 49.46 31.84 49.12Q31.40 48.49 31.08 47.80Q30.76 47.12 30.27 46.53Q28.56 46.53 26.95 46.73Q25.34 46.92 23.83 46.92Q23.58 46.92 23.36 46.88Q23.14 46.83 22.90 46.78Q22.66 46.78 22.41 46.83Q22.17 46.88 21.92 46.83Q21.29 46.73 21.07 46.61Q20.85 46.48 20.56 46.44Q19.92 46.34 19.38 46.58Q18.85 46.83 18.41 47.12Q18.12 46.97 17.92 47.09Q17.72 47.22 17.43 47.31Q17.09 47.41 16.67 47.41Q16.26 47.41 15.87 47.51Q15.48 47.61 15.04 47.63Q14.60 47.66 14.31 47.85Q14.21 47.95 14.04 48.36Q13.87 48.78 13.77 48.93Q13.72 49.07 13.72 49.22Q13.72 49.37 13.62 49.51Q13.33 50.34 13.13 51.34Q12.94 52.34 12.65 53.17Q12.40 53.37 12.23 53.59Q12.06 53.81 11.82 53.86Q11.47 53.96 10.99 53.88Q10.50 53.81 10.11 53.86Q9.91 53.91 9.72 53.96Q9.52 54.00 9.28 54.00Q8.84 54.05 8.37 54.00Q7.91 53.96 7.57 54.05Q7.37 54.10 7.13 54.27Q6.88 54.44 6.54 54.44Q6.15 54.49 5.76 54.30Q5.52 54.20 5.30 53.93Q5.08 53.66 5.03 53.27Q5.03 52.93 5.13 52.44Q5.22 51.95 5.37 51.51Q5.52 51.07 5.71 50.63Q5.96 50.10 6.20 49.44Q6.45 48.78 6.69 48.19Q6.25 48.10 5.71 48.17Q5.18 48.24 4.64 48.34Q4.39 48.39 4.08 48.39Q3.76 48.39 3.52 48.39Q2.78 48.34 2.64 48.00Q2.49 47.66 2.47 47.22Q2.44 46.78 2.51 46.34Q2.59 45.90 2.73 45.65Q2.73 44.92 2.59 44.34Q2.59 44.19 2.54 44.04Q2.49 43.90 2.49 43.80Q2.69 43.12 2.66 42.72Q2.64 42.33 2.78 42.09Q2.93 41.85 3.17 41.70Q3.42 41.75 3.61 41.63Q3.81 41.50 4.05 41.46Q4.69 41.36 5.30 41.41Q5.91 41.46 6.54 41.26Q7.13 41.80 8.11 41.50Q8.25 41.46 8.45 41.41Q8.64 41.36 8.84 41.31Q9.33 41.11 9.52 41.06Q10.16 41.02 10.28 40.58Q10.40 40.14 10.16 39.84Q10.55 38.92 10.86 37.99Q11.18 37.06 11.57 36.13Q11.72 35.45 11.94 34.84Q12.16 34.23 12.60 33.84Q12.79 33.64 13.13 33.54Q13.48 33.45 13.62 33.20Q13.77 32.96 13.79 32.50Q13.82 32.03 13.72 31.79Q13.67 31.69 13.55 31.54Q13.43 31.40 13.43 31.25Q13.38 31.10 13.48 30.93Q13.57 30.76 13.67 30.52Q14.26 29.15 14.87 27.64Q15.48 26.12 16.11 24.66Q16.36 23.58 16.77 22.66Q17.19 21.73 17.48 20.70Q17.19 20.17 16.67 19.41Q16.16 18.65 16.26 17.82Q16.31 17.48 16.48 17.31Q16.65 17.14 16.89 16.89Q17.29 16.65 17.68 16.53Q18.07 16.41 18.46 16.21Q18.70 16.11 18.92 15.97Q19.14 15.82 19.38 15.72Q19.63 15.63 19.85 15.60Q20.07 15.58 20.26 15.43Q22.07 15.14 23.49 14.21Q23.63 14.11 23.75 13.96Q23.88 13.82 24.12 13.72Q24.37 13.62 24.68 13.50Q25 13.38 25.39 13.23Q26.12 12.89 26.98 12.79Q27.83 12.70 28.56 13.09Q28.86 12.99 28.96 13.13Q29.05 13.28 29.30 13.53Q29.39 13.72 29.54 13.82Q29.69 13.92 29.83 14.16Q30.37 14.89 30.79 15.87Q31.20 16.85 31.74 17.68Q31.88 17.92 32.01 18.19Q32.13 18.46 32.32 18.70Q32.42 18.95 32.54 19.12Q32.67 19.29 32.81 19.53Q32.91 19.68 32.98 19.80Q33.06 19.92 33.11 20.02Q33.20 20.26 33.35 20.48Q33.50 20.70 33.54 20.85Q33.59 21.09 33.52 21.29Q33.45 21.48 33.45 21.68Q33.54 22.46 33.98 23.05Q34.42 23.63 34.86 24.02Q35.01 24.17 35.21 24.32Q35.40 24.46 35.60 24.61Q35.74 24.76 35.82 24.95Q35.89 25.15 36.13 25.24Q36.38 25.63 36.55 26.12Q36.72 26.61 37.01 26.95Q37.26 27.59 37.65 28.17Q38.04 28.76 38.33 29.39Q38.43 29.64 38.53 29.88Q38.62 30.13 38.72 30.37Q39.16 31.35 39.70 32.32Q40.23 33.30 40.72 34.28Q40.97 34.47 41.06 34.72Q41.16 34.96 41.31 35.21Q41.55 35.45 41.82 35.82Q42.09 36.18 42.19 36.67Q42.24 36.96 42.21 37.33Q42.19 37.70 42.14 38.06Q42.09 38.43 42.11 38.79Q42.14 39.16 42.33 39.45Q42.87 40.23 43.95 40.63Q44.04 40.87 44.29 41.04Q44.53 41.21 44.73 41.46Q45.51 42.92 46.14 43.92Q46.78 44.92 47.31 46.04Q47.41 46.29 47.58 46.56Q47.75 46.83 47.85 47.07Q48.00 47.31 48.05 47.53Q48.10 47.75 48.19 47.95Q48.29 48.19 48.39 48.39Q48.49 48.58 48.58 48.88Q48.68 49.07 48.83 49.29Q48.97 49.51 48.97 49.66M6.05 44.68Q6.15 44.04 5.79 43.85Q5.42 43.65 5.03 43.55Q4.25 43.51 4.10 43.92Q3.96 44.34 4.15 44.58Q4.39 44.82 4.71 45.02Q5.03 45.21 5.37 45.31Q5.62 45.21 5.76 45.04Q5.91 44.87 6.05 44.68M19.34 22.17Q19.24 22.46 19.07 22.78Q18.90 23.10 18.90 23.24Q18.90 23.49 19.12 23.75Q19.34 24.02 19.58 23.97Q19.73 23.93 19.87 23.68Q20.02 23.44 20.12 23.24Q20.26 23.00 20.34 22.80Q20.41 22.61 20.51 22.36Q20.65 21.97 21.00 21.53Q21.34 21.09 21.34 20.70Q21.34 20.51 21.24 20.29Q21.14 20.07 21.04 19.82Q20.80 19.29 20.58 18.82Q20.36 18.36 19.82 18.46Q19.34 18.55 19.29 18.90Q19.09 19.43 19.41 19.75Q19.73 20.07 19.73 20.56Q19.78 21.04 19.63 21.41Q19.48 21.78 19.34 22.17M17.97 25.24Q17.58 25.29 17.41 25.59Q17.24 25.88 17.21 26.25Q17.19 26.61 17.33 26.95Q17.48 27.29 17.72 27.44Q18.16 27.39 18.36 27.12Q18.55 26.86 18.53 26.51Q18.51 26.17 18.33 25.81Q18.16 25.44 17.97 25.24M27.20 39.84Q27.29 39.45 27.05 39.23Q26.81 39.01 26.76 38.62Q26.71 38.23 26.81 37.87Q26.90 37.50 26.81 37.16Q26.71 36.77 26.44 36.57Q26.17 36.38 26.03 36.08Q25.49 36.08 25.32 35.64Q25.15 35.21 24.90 34.72Q24.37 33.94 24.24 33.57Q24.12 33.20 23.83 32.96Q23.39 31.88 22.75 30.83Q22.12 29.79 21.58 28.76Q21.29 29.00 21.24 29.44Q21.19 29.88 21.09 30.27Q20.80 30.86 20.78 30.98Q20.75 31.10 20.70 31.20Q20.51 31.54 20.31 31.49Q20.12 31.45 19.82 31.54Q19.34 31.64 19.14 32.15Q18.95 32.67 18.99 33.20Q18.99 33.45 19.09 33.69Q19.19 33.94 19.19 34.18Q19.24 34.52 19.07 34.89Q18.90 35.25 18.70 35.64Q18.46 36.33 18.31 36.96Q18.16 37.60 17.82 38.13Q17.68 38.87 17.41 39.45Q17.14 40.04 17.04 40.72Q19.24 40.63 21.17 40.60Q23.10 40.58 24.95 40.28Q25.29 40.23 25.56 40.16Q25.83 40.09 26.12 40.09Q26.37 40.09 26.66 40.06Q26.95 40.04 27.20 39.84M33.74 45.90Q33.84 45.70 33.86 45.29Q33.89 44.87 33.84 44.73Q33.79 44.43 33.50 43.95Q33.20 43.46 33.06 43.36Q32.81 43.21 32.54 43.29Q32.28 43.36 31.88 43.36Q31.15 43.31 30.71 43.36Q30.27 43.41 29.88 43.46Q29.54 43.55 29.27 43.51Q29.00 43.46 28.81 43.51Q28.71 43.70 28.59 43.85Q28.47 43.99 28.42 44.24Q28.71 44.48 29.00 44.38Q29.30 44.29 29.79 44.34Q29.98 44.34 30.13 44.36Q30.27 44.38 30.42 44.34Q30.66 44.29 30.83 44.19Q31.01 44.09 31.15 44.09Q31.54 44.09 31.64 44.31Q31.74 44.53 31.88 44.78Q31.93 44.87 32.03 45.00Q32.13 45.12 32.23 45.31Q32.42 45.70 32.52 45.90Q32.62 46.09 32.96 46.19Q33.20 46.09 33.42 46.07Q33.64 46.04 33.74 45.90M38.38 35.79Q38.87 35.40 38.53 34.42Q38.43 34.23 38.26 34.06Q38.09 33.89 37.94 33.64Q37.84 33.45 37.72 33.20Q37.60 32.96 37.40 32.67Q37.30 32.42 37.18 32.23Q37.06 32.03 36.96 31.79Q36.91 31.59 36.91 31.45Q36.91 31.30 36.87 31.15Q36.77 30.96 36.67 30.74Q36.57 30.52 36.43 30.32Q36.18 29.93 35.96 29.71Q35.74 29.49 35.30 29.39Q35.16 29.54 34.89 29.59Q34.62 29.64 34.42 29.59Q34.23 30.27 34.69 30.64Q35.16 31.01 35.55 31.25Q35.99 31.79 36.21 32.86Q36.43 33.94 36.77 34.72Q36.82 34.91 36.89 35.06Q36.96 35.21 37.06 35.40Q37.30 35.74 37.57 35.82Q37.84 35.89 38.38 35.79M45.41 49.56Q45.56 49.51 45.87 49.19Q46.19 48.88 46.19 48.63Q46.19 48.58 46.00 48.10Q45.85 47.61 45.70 47.17Q45.56 46.73 45.07 46.83Q44.87 46.88 44.68 47.02Q44.48 47.17 44.38 47.41Q44.29 47.66 44.26 48.12Q44.24 48.58 44.38 48.83Q44.48 49.07 44.82 49.34Q45.17 49.61 45.41 49.56M31.05 14.55Q31.01 14.45 31.01 14.28Q31.01 14.11 30.96 14.01Q30.86 13.82 30.81 13.75Q30.76 13.67 30.76 13.48Q30.86 13.33 31.15 13.33Q31.45 13.33 31.64 13.33Q31.79 13.53 32.03 13.87Q32.13 14.11 32.25 14.33Q32.37 14.55 32.47 14.79Q32.67 15.33 32.71 15.38Q32.76 15.43 32.76 15.53Q32.76 15.63 32.62 15.77Q32.47 15.92 32.28 15.92Q32.03 15.87 31.81 15.50Q31.59 15.14 31.45 14.94Q31.35 14.84 31.23 14.75Q31.10 14.65 31.05 14.55M14.36 21.73Q14.50 21.48 14.70 21.12Q14.89 20.75 14.79 20.36Q14.75 20.17 14.55 19.95Q14.36 19.73 14.16 19.51Q13.96 19.29 13.84 19.04Q13.72 18.80 13.82 18.46Q13.82 18.41 13.99 18.12Q14.16 17.82 14.26 17.77Q14.65 18.21 14.75 18.48Q14.84 18.75 14.94 18.99Q15.19 19.38 15.43 19.95Q15.67 20.51 15.92 21.00Q15.87 21.48 15.65 21.78Q15.43 22.07 15.23 22.56Q15.14 22.85 15.04 23.10Q14.94 23.34 14.89 23.68Q14.06 23.19 14.09 22.73Q14.11 22.27 14.36 21.73M33.64 18.95Q33.45 18.55 33.18 18.19Q32.91 17.82 32.81 17.43Q33.06 17.33 33.25 17.41Q33.45 17.48 33.69 17.43Q33.89 17.68 34.06 17.90Q34.23 18.12 34.42 18.36Q34.52 18.85 34.81 19.14Q35.11 19.43 35.35 19.82Q35.60 20.21 35.69 20.56Q35.79 20.90 36.04 21.29Q36.57 22.27 37.13 23.24Q37.70 24.22 38.28 25.20Q38.23 25.34 38.28 25.56Q38.33 25.78 38.38 26.03Q38.43 26.27 38.38 26.44Q38.33 26.61 38.13 26.66Q37.94 26.66 37.70 26.42Q37.45 26.17 37.40 26.07Q37.30 25.98 37.26 25.81Q37.21 25.63 37.11 25.49Q37.01 25.39 36.94 25.24Q36.87 25.10 36.77 25Q36.57 24.71 36.45 24.41Q36.33 24.12 36.18 23.88Q36.08 23.73 35.89 23.61Q35.69 23.49 35.60 23.34Q35.35 23.10 35.21 22.66Q35.06 22.22 34.96 21.83Q34.86 21.44 34.74 21.07Q34.62 20.70 34.47 20.36Q34.18 20.12 34.03 19.73Q33.89 19.34 33.64 18.95M8.45 40.19Q8.06 40.28 7.52 40.21Q6.98 40.14 7.08 39.75Q7.13 39.55 7.57 39.33Q8.01 39.11 8.25 39.11Q8.45 39.01 8.50 38.89Q8.54 38.77 8.69 38.67Q8.74 38.13 9.28 37.79Q9.42 37.50 9.57 37.23Q9.72 36.96 9.86 36.67Q10.01 37.65 9.67 38.35Q9.33 39.06 9.18 39.94Q8.79 40.14 8.45 40.19M20.21 38.67Q20.36 38.77 20.65 38.77Q20.95 38.77 21.24 38.79Q21.53 38.82 21.75 38.89Q21.97 38.96 22.02 39.21Q21.04 39.75 20.19 39.77Q19.34 39.79 18.55 39.84Q18.31 39.50 18.51 39.11Q18.70 38.72 18.60 38.28Q18.85 38.09 18.97 37.84Q19.09 37.60 19.29 37.40Q19.24 37.06 19.41 36.77Q19.58 36.47 19.92 36.57Q20.07 36.82 20.04 37.13Q20.02 37.45 20.00 37.74Q19.97 38.04 19.97 38.28Q19.97 38.53 20.21 38.67M4.49 49.41Q4.74 49.51 4.76 49.85Q4.79 50.20 4.88 50.63Q4.69 50.73 4.57 50.90Q4.44 51.07 4.15 50.98Q3.71 51.03 3.47 50.73Q3.22 50.44 2.98 50.29Q2.83 50.24 2.44 50.34Q2.20 50.34 1.88 50.32Q1.56 50.29 1.32 50.34Q1.07 50.39 0.98 50.37Q0.88 50.34 0.63 50.24Q0.44 50.15 0.29 50Q0.15 49.85 0.10 49.56Q0 49.17 0.12 48.73Q0.24 48.29 0.24 47.90Q0.24 47.66 0.22 47.41Q0.20 47.17 0.29 46.97Q0.34 46.88 0.49 46.73Q0.63 46.58 0.81 46.48Q0.98 46.39 1.12 46.41Q1.27 46.44 1.32 46.63Q1.37 46.92 1.29 47.31Q1.22 47.71 1.17 48.10Q1.12 48.49 1.20 48.85Q1.27 49.22 1.56 49.46Q2.10 49.41 2.22 49.49Q2.34 49.56 2.49 49.56Q2.93 49.61 3.52 49.39Q4.10 49.17 4.49 49.41M17.53 48.34Q17.87 48.29 18.16 48.49Q17.77 49.07 17.33 49.07Q16.60 49.76 16.26 50.12Q15.92 50.49 15.67 50.98Q15.63 51.56 15.43 52.00Q15.23 52.44 14.99 52.83Q14.70 52.83 14.40 53.03Q14.21 52.83 14.36 52.61Q14.50 52.39 14.40 52.05Q14.50 51.27 14.70 50.73Q14.94 50.20 14.89 50.02Q14.84 49.85 14.94 49.71Q14.99 49.56 15.14 49.41Q15.28 49.27 15.33 49.17Q15.92 48.83 16.53 48.71Q17.14 48.58 17.53 48.34M46.00 52.39Q46.19 52.34 46.46 52.59Q46.73 52.83 46.68 53.03Q46.29 53.66 45.92 53.81Q45.56 53.96 45.21 54.05Q45.02 54.10 44.85 54.13Q44.68 54.15 44.53 54.00Q44.78 53.27 45.12 52.91Q45.46 52.54 46.00 52.39M42.04 54.44Q42.14 54.54 42.46 54.49Q42.77 54.44 42.77 54.69Q42.77 54.88 42.19 55.08Q41.60 55.27 41.46 55.37L38.04 57.08Q37.94 57.23 37.74 57.25Q37.55 57.28 37.40 57.37Q37.21 57.47 37.08 57.62Q36.96 57.76 36.67 57.81Q36.43 57.86 36.18 57.74Q35.94 57.62 35.69 57.57Q35.45 57.57 35.28 57.59Q35.11 57.62 34.96 57.57Q34.18 57.37 33.62 56.74Q33.06 56.10 32.67 55.57Q32.67 55.32 32.57 55.22Q32.47 55.13 32.42 54.93Q31.93 54.64 31.76 54.42Q31.59 54.20 31.69 53.86Q31.79 53.66 32.03 53.56Q32.28 53.47 32.42 53.56Q32.81 53.66 33.01 54.15Q33.20 54.64 33.54 55.03Q33.79 55.42 34.18 55.74Q34.57 56.05 34.96 56.30Q35.21 56.35 35.45 56.45Q35.69 56.54 35.94 56.54Q36.47 56.49 36.96 56.32Q37.45 56.15 37.99 56.10Q39.36 55.76 40.23 55.30Q41.11 54.83 42.04 54.44ZM96.63 49.66Q96.68 49.85 96.58 49.95Q96.48 50.05 96.58 50.24Q95.95 50.88 94.73 51.22Q94.34 51.37 93.85 51.37Q93.55 51.37 93.26 51.32Q92.97 51.27 92.72 51.32Q92.33 51.46 92.16 51.81Q91.99 52.15 91.89 52.54Q91.36 52.78 90.84 52.86Q90.33 52.93 89.89 53.13Q89.70 53.22 89.58 53.30Q89.45 53.37 89.21 53.47Q88.96 53.56 88.75 53.56Q88.53 53.56 88.33 53.86Q87.70 54.00 87.06 54.27Q86.43 54.54 85.79 54.71Q85.16 54.88 84.52 54.91Q83.89 54.93 83.30 54.59Q82.47 53.61 82.08 52.95Q81.69 52.29 81.15 51.66Q80.96 51.42 80.74 51.20Q80.52 50.98 80.42 50.73Q80.08 50.05 79.88 49.76Q79.69 49.46 79.49 49.12Q79.05 48.49 78.74 47.80Q78.42 47.12 77.93 46.53Q76.22 46.53 74.61 46.73Q73.00 46.92 71.48 46.92Q71.24 46.92 71.02 46.88Q70.80 46.83 70.56 46.78Q70.31 46.78 70.07 46.83Q69.82 46.88 69.58 46.83Q68.95 46.73 68.73 46.61Q68.51 46.48 68.21 46.44Q67.58 46.34 67.04 46.58Q66.50 46.83 66.06 47.12Q65.77 46.97 65.58 47.09Q65.38 47.22 65.09 47.31Q64.75 47.41 64.33 47.41Q63.92 47.41 63.53 47.51Q63.13 47.61 62.70 47.63Q62.26 47.66 61.96 47.85Q61.87 47.95 61.69 48.36Q61.52 48.78 61.43 48.93Q61.38 49.07 61.38 49.22Q61.38 49.37 61.28 49.51Q60.99 50.34 60.79 51.34Q60.60 52.34 60.30 53.17Q60.06 53.37 59.89 53.59Q59.72 53.81 59.47 53.86Q59.13 53.96 58.64 53.88Q58.15 53.81 57.76 53.86Q57.57 53.91 57.37 53.96Q57.18 54.00 56.93 54.00Q56.49 54.05 56.03 54.00Q55.57 53.96 55.22 54.05Q55.03 54.10 54.79 54.27Q54.54 54.44 54.20 54.44Q53.81 54.49 53.42 54.30Q53.17 54.20 52.95 53.93Q52.73 53.66 52.69 53.27Q52.69 52.93 52.78 52.44Q52.88 51.95 53.03 51.51Q53.17 51.07 53.37 50.63Q53.61 50.10 53.86 49.44Q54.10 48.78 54.35 48.19Q53.91 48.10 53.37 48.17Q52.83 48.24 52.29 48.34Q52.05 48.39 51.73 48.39Q51.42 48.39 51.17 48.39Q50.44 48.34 50.29 48.00Q50.15 47.66 50.12 47.22Q50.10 46.78 50.17 46.34Q50.24 45.90 50.39 45.65Q50.39 44.92 50.24 44.34Q50.24 44.19 50.20 44.04Q50.15 43.90 50.15 43.80Q50.34 43.12 50.32 42.72Q50.29 42.33 50.44 42.09Q50.59 41.85 50.83 41.70Q51.07 41.75 51.27 41.63Q51.46 41.50 51.71 41.46Q52.34 41.36 52.95 41.41Q53.56 41.46 54.20 41.26Q54.79 41.80 55.76 41.50Q55.91 41.46 56.10 41.41Q56.30 41.36 56.49 41.31Q56.98 41.11 57.18 41.06Q57.81 41.02 57.93 40.58Q58.06 40.14 57.81 39.84Q58.20 38.92 58.52 37.99Q58.84 37.06 59.23 36.13Q59.38 35.45 59.59 34.84Q59.81 34.23 60.25 33.84Q60.45 33.64 60.79 33.54Q61.13 33.45 61.28 33.20Q61.43 32.96 61.45 32.50Q61.47 32.03 61.38 31.79Q61.33 31.69 61.21 31.54Q61.08 31.40 61.08 31.25Q61.04 31.10 61.13 30.93Q61.23 30.76 61.33 30.52Q61.91 29.15 62.52 27.64Q63.13 26.12 63.77 24.66Q64.01 23.58 64.43 22.66Q64.84 21.73 65.14 20.70Q64.84 20.17 64.33 19.41Q63.82 18.65 63.92 17.82Q63.96 17.48 64.14 17.31Q64.31 17.14 64.55 16.89Q64.94 16.65 65.33 16.53Q65.72 16.41 66.11 16.21Q66.36 16.11 66.58 15.97Q66.80 15.82 67.04 15.72Q67.29 15.63 67.50 15.60Q67.72 15.58 67.92 15.43Q69.73 15.14 71.14 14.21Q71.29 14.11 71.41 13.96Q71.53 13.82 71.78 13.72Q72.02 13.62 72.34 13.50Q72.66 13.38 73.05 13.23Q73.78 12.89 74.63 12.79Q75.49 12.70 76.22 13.09Q76.51 12.99 76.61 13.13Q76.71 13.28 76.95 13.53Q77.05 13.72 77.20 13.82Q77.34 13.92 77.49 14.16Q78.03 14.89 78.44 15.87Q78.86 16.85 79.39 17.68Q79.54 17.92 79.66 18.19Q79.79 18.46 79.98 18.70Q80.08 18.95 80.20 19.12Q80.32 19.29 80.47 19.53Q80.57 19.68 80.64 19.80Q80.71 19.92 80.76 20.02Q80.86 20.26 81.01 20.48Q81.15 20.70 81.20 20.85Q81.25 21.09 81.18 21.29Q81.10 21.48 81.10 21.68Q81.20 22.46 81.64 23.05Q82.08 23.63 82.52 24.02Q82.67 24.17 82.86 24.32Q83.06 24.46 83.25 24.61Q83.40 24.76 83.47 24.95Q83.54 25.15 83.79 25.24Q84.03 25.63 84.20 26.12Q84.38 26.61 84.67 26.95Q84.91 27.59 85.30 28.17Q85.69 28.76 85.99 29.39Q86.08 29.64 86.18 29.88Q86.28 30.13 86.38 30.37Q86.82 31.35 87.35 32.32Q87.89 33.30 88.38 34.28Q88.62 34.47 88.72 34.72Q88.82 34.96 88.96 35.21Q89.21 35.45 89.48 35.82Q89.75 36.18 89.84 36.67Q89.89 36.96 89.87 37.33Q89.84 37.70 89.79 38.06Q89.75 38.43 89.77 38.79Q89.79 39.16 89.99 39.45Q90.53 40.23 91.60 40.63Q91.70 40.87 91.94 41.04Q92.19 41.21 92.38 41.46Q93.16 42.92 93.80 43.92Q94.43 44.92 94.97 46.04Q95.07 46.29 95.24 46.56Q95.41 46.83 95.51 47.07Q95.65 47.31 95.70 47.53Q95.75 47.75 95.85 47.95Q95.95 48.19 96.04 48.39Q96.14 48.58 96.24 48.88Q96.34 49.07 96.48 49.29Q96.63 49.51 96.63 49.66M53.71 44.68Q53.81 44.04 53.44 43.85Q53.08 43.65 52.69 43.55Q51.90 43.51 51.76 43.92Q51.61 44.34 51.81 44.58Q52.05 44.82 52.37 45.02Q52.69 45.21 53.03 45.31Q53.27 45.21 53.42 45.04Q53.56 44.87 53.71 44.68M66.99 22.17Q66.89 22.46 66.72 22.78Q66.55 23.10 66.55 23.24Q66.55 23.49 66.77 23.75Q66.99 24.02 67.24 23.97Q67.38 23.93 67.53 23.68Q67.68 23.44 67.77 23.24Q67.92 23.00 67.99 22.80Q68.07 22.61 68.16 22.36Q68.31 21.97 68.65 21.53Q68.99 21.09 68.99 20.70Q68.99 20.51 68.90 20.29Q68.80 20.07 68.70 19.82Q68.46 19.29 68.24 18.82Q68.02 18.36 67.48 18.46Q66.99 18.55 66.94 18.90Q66.75 19.43 67.07 19.75Q67.38 20.07 67.38 20.56Q67.43 21.04 67.29 21.41Q67.14 21.78 66.99 22.17M65.63 25.24Q65.23 25.29 65.06 25.59Q64.89 25.88 64.87 26.25Q64.84 26.61 64.99 26.95Q65.14 27.29 65.38 27.44Q65.82 27.39 66.02 27.12Q66.21 26.86 66.19 26.51Q66.16 26.17 65.99 25.81Q65.82 25.44 65.63 25.24M74.85 39.84Q74.95 39.45 74.71 39.23Q74.46 39.01 74.41 38.62Q74.37 38.23 74.46 37.87Q74.56 37.50 74.46 37.16Q74.37 36.77 74.10 36.57Q73.83 36.38 73.68 36.08Q73.14 36.08 72.97 35.64Q72.80 35.21 72.56 34.72Q72.02 33.94 71.90 33.57Q71.78 33.20 71.48 32.96Q71.04 31.88 70.41 30.83Q69.78 29.79 69.24 28.76Q68.95 29.00 68.90 29.44Q68.85 29.88 68.75 30.27Q68.46 30.86 68.43 30.98Q68.41 31.10 68.36 31.20Q68.16 31.54 67.97 31.49Q67.77 31.45 67.48 31.54Q66.99 31.64 66.80 32.15Q66.60 32.67 66.65 33.20Q66.65 33.45 66.75 33.69Q66.85 33.94 66.85 34.18Q66.89 34.52 66.72 34.89Q66.55 35.25 66.36 35.64Q66.11 36.33 65.97 36.96Q65.82 37.60 65.48 38.13Q65.33 38.87 65.06 39.45Q64.79 40.04 64.70 40.72Q66.89 40.63 68.82 40.60Q70.75 40.58 72.61 40.28Q72.95 40.23 73.22 40.16Q73.49 40.09 73.78 40.09Q74.02 40.09 74.32 40.06Q74.61 40.04 74.85 39.84M81.40 45.90Q81.49 45.70 81.52 45.29Q81.54 44.87 81.49 44.73Q81.45 44.43 81.15 43.95Q80.86 43.46 80.71 43.36Q80.47 43.21 80.20 43.29Q79.93 43.36 79.54 43.36Q78.81 43.31 78.37 43.36Q77.93 43.41 77.54 43.46Q77.20 43.55 76.93 43.51Q76.66 43.46 76.46 43.51Q76.37 43.70 76.25 43.85Q76.12 43.99 76.07 44.24Q76.37 44.48 76.66 44.38Q76.95 44.29 77.44 44.34Q77.64 44.34 77.78 44.36Q77.93 44.38 78.08 44.34Q78.32 44.29 78.49 44.19Q78.66 44.09 78.81 44.09Q79.20 44.09 79.30 44.31Q79.39 44.53 79.54 44.78Q79.59 44.87 79.69 45.00Q79.79 45.12 79.88 45.31Q80.08 45.70 80.18 45.90Q80.27 46.09 80.62 46.19Q80.86 46.09 81.08 46.07Q81.30 46.04 81.40 45.90M86.04 35.79Q86.52 35.40 86.18 34.42Q86.08 34.23 85.91 34.06Q85.74 33.89 85.60 33.64Q85.50 33.45 85.38 33.20Q85.25 32.96 85.06 32.67Q84.96 32.42 84.84 32.23Q84.72 32.03 84.62 31.79Q84.57 31.59 84.57 31.45Q84.57 31.30 84.52 31.15Q84.42 30.96 84.33 30.74Q84.23 30.52 84.08 30.32Q83.84 29.93 83.62 29.71Q83.40 29.49 82.96 29.39Q82.81 29.54 82.54 29.59Q82.28 29.64 82.08 29.59Q81.88 30.27 82.35 30.64Q82.81 31.01 83.20 31.25Q83.64 31.79 83.86 32.86Q84.08 33.94 84.42 34.72Q84.47 34.91 84.55 35.06Q84.62 35.21 84.72 35.40Q84.96 35.74 85.23 35.82Q85.50 35.89 86.04 35.79M93.07 49.56Q93.21 49.51 93.53 49.19Q93.85 48.88 93.85 48.63Q93.85 48.58 93.65 48.10Q93.51 47.61 93.36 47.17Q93.21 46.73 92.72 46.83Q92.53 46.88 92.33 47.02Q92.14 47.17 92.04 47.41Q91.94 47.66 91.92 48.12Q91.89 48.58 92.04 48.83Q92.14 49.07 92.48 49.34Q92.82 49.61 93.07 49.56M78.71 14.55Q78.66 14.45 78.66 14.28Q78.66 14.11 78.61 14.01Q78.52 13.82 78.47 13.75Q78.42 13.67 78.42 13.48Q78.52 13.33 78.81 13.33Q79.10 13.33 79.30 13.33Q79.44 13.53 79.69 13.87Q79.79 14.11 79.91 14.33Q80.03 14.55 80.13 14.79Q80.32 15.33 80.37 15.38Q80.42 15.43 80.42 15.53Q80.42 15.63 80.27 15.77Q80.13 15.92 79.93 15.92Q79.69 15.87 79.47 15.50Q79.25 15.14 79.10 14.94Q79.00 14.84 78.88 14.75Q78.76 14.65 78.71 14.55M62.01 21.73Q62.16 21.48 62.35 21.12Q62.55 20.75 62.45 20.36Q62.40 20.17 62.21 19.95Q62.01 19.73 61.82 19.51Q61.62 19.29 61.50 19.04Q61.38 18.80 61.47 18.46Q61.47 18.41 61.65 18.12Q61.82 17.82 61.91 17.77Q62.30 18.21 62.40 18.48Q62.50 18.75 62.60 18.99Q62.84 19.38 63.09 19.95Q63.33 20.51 63.57 21.00Q63.53 21.48 63.31 21.78Q63.09 22.07 62.89 22.56Q62.79 22.85 62.70 23.10Q62.60 23.34 62.55 23.68Q61.72 23.19 61.74 22.73Q61.77 22.27 62.01 21.73M81.30 18.95Q81.10 18.55 80.83 18.19Q80.57 17.82 80.47 17.43Q80.71 17.33 80.91 17.41Q81.10 17.48 81.35 17.43Q81.54 17.68 81.71 17.90Q81.88 18.12 82.08 18.36Q82.18 18.85 82.47 19.14Q82.76 19.43 83.01 19.82Q83.25 20.21 83.35 20.56Q83.45 20.90 83.69 21.29Q84.23 22.27 84.79 23.24Q85.35 24.22 85.94 25.20Q85.89 25.34 85.94 25.56Q85.99 25.78 86.04 26.03Q86.08 26.27 86.04 26.44Q85.99 26.61 85.79 26.66Q85.60 26.66 85.35 26.42Q85.11 26.17 85.06 26.07Q84.96 25.98 84.91 25.81Q84.86 25.63 84.77 25.49Q84.67 25.39 84.59 25.24Q84.52 25.10 84.42 25Q84.23 24.71 84.11 24.41Q83.98 24.12 83.84 23.88Q83.74 23.73 83.54 23.61Q83.35 23.49 83.25 23.34Q83.01 23.10 82.86 22.66Q82.71 22.22 82.62 21.83Q82.52 21.44 82.40 21.07Q82.28 20.70 82.13 20.36Q81.84 20.12 81.69 19.73Q81.54 19.34 81.30 18.95M56.10 40.19Q55.71 40.28 55.18 40.21Q54.64 40.14 54.74 39.75Q54.79 39.55 55.22 39.33Q55.66 39.11 55.91 39.11Q56.10 39.01 56.15 38.89Q56.20 38.77 56.35 38.67Q56.40 38.13 56.93 37.79Q57.08 37.50 57.23 37.23Q57.37 36.96 57.52 36.67Q57.67 37.65 57.32 38.35Q56.98 39.06 56.84 39.94Q56.45 40.14 56.10 40.19M67.87 38.67Q68.02 38.77 68.31 38.77Q68.60 38.77 68.90 38.79Q69.19 38.82 69.41 38.89Q69.63 38.96 69.68 39.21Q68.70 39.75 67.85 39.77Q66.99 39.79 66.21 39.84Q65.97 39.50 66.16 39.11Q66.36 38.72 66.26 38.28Q66.50 38.09 66.63 37.84Q66.75 37.60 66.94 37.40Q66.89 37.06 67.07 36.77Q67.24 36.47 67.58 36.57Q67.72 36.82 67.70 37.13Q67.68 37.45 67.65 37.74Q67.63 38.04 67.63 38.28Q67.63 38.53 67.87 38.67M52.15 49.41Q52.39 49.51 52.42 49.85Q52.44 50.20 52.54 50.63Q52.34 50.73 52.22 50.90Q52.10 51.07 51.81 50.98Q51.37 51.03 51.12 50.73Q50.88 50.44 50.63 50.29Q50.49 50.24 50.10 50.34Q49.85 50.34 49.54 50.32Q49.22 50.29 48.97 50.34Q48.73 50.39 48.63 50.37Q48.54 50.34 48.29 50.24Q48.10 50.15 47.95 50Q47.80 49.85 47.75 49.56Q47.66 49.17 47.78 48.73Q47.90 48.29 47.90 47.90Q47.90 47.66 47.88 47.41Q47.85 47.17 47.95 46.97Q48.00 46.88 48.14 46.73Q48.29 46.58 48.46 46.48Q48.63 46.39 48.78 46.41Q48.93 46.44 48.97 46.63Q49.02 46.92 48.95 47.31Q48.88 47.71 48.83 48.10Q48.78 48.49 48.85 48.85Q48.93 49.22 49.22 49.46Q49.76 49.41 49.88 49.49Q50 49.56 50.15 49.56Q50.59 49.61 51.17 49.39Q51.76 49.17 52.15 49.41M65.19 48.34Q65.53 48.29 65.82 48.49Q65.43 49.07 64.99 49.07Q64.26 49.76 63.92 50.12Q63.57 50.49 63.33 50.98Q63.28 51.56 63.09 52.00Q62.89 52.44 62.65 52.83Q62.35 52.83 62.06 53.03Q61.87 52.83 62.01 52.61Q62.16 52.39 62.06 52.05Q62.16 51.27 62.35 50.73Q62.60 50.20 62.55 50.02Q62.50 49.85 62.60 49.71Q62.65 49.56 62.79 49.41Q62.94 49.27 62.99 49.17Q63.57 48.83 64.18 48.71Q64.79 48.58 65.19 48.34M93.65 52.39Q93.85 52.34 94.12 52.59Q94.38 52.83 94.34 53.03Q93.95 53.66 93.58 53.81Q93.21 53.96 92.87 54.05Q92.68 54.10 92.50 54.13Q92.33 54.15 92.19 54.00Q92.43 53.27 92.77 52.91Q93.12 52.54 93.65 52.39M89.70 54.44Q89.79 54.54 90.11 54.49Q90.43 54.44 90.43 54.69Q90.43 54.88 89.84 55.08Q89.26 55.27 89.11 55.37L85.69 57.08Q85.60 57.23 85.40 57.25Q85.21 57.28 85.06 57.37Q84.86 57.47 84.74 57.62Q84.62 57.76 84.33 57.81Q84.08 57.86 83.84 57.74Q83.59 57.62 83.35 57.57Q83.11 57.57 82.93 57.59Q82.76 57.62 82.62 57.57Q81.84 57.37 81.27 56.74Q80.71 56.10 80.32 55.57Q80.32 55.32 80.22 55.22Q80.13 55.13 80.08 54.93Q79.59 54.64 79.42 54.42Q79.25 54.20 79.35 53.86Q79.44 53.66 79.69 53.56Q79.93 53.47 80.08 53.56Q80.47 53.66 80.66 54.15Q80.86 54.64 81.20 55.03Q81.45 55.42 81.84 55.74Q82.23 56.05 82.62 56.30Q82.86 56.35 83.11 56.45Q83.35 56.54 83.59 56.54Q84.13 56.49 84.62 56.32Q85.11 56.15 85.64 56.10Q87.01 55.76 87.89 55.30Q88.77 54.83 89.70 54.44ZM111.72 51.90Q111.96 52.15 111.65 52.27Q111.33 52.39 111.04 52.34Q110.64 52.34 110.23 52.25Q109.81 52.15 109.57 52.25Q110.11 51.81 110.69 51.88Q111.28 51.95 111.72 51.90M104.35 14.55Q103.56 14.89 103.10 14.87Q102.64 14.84 102.20 15.04Q102.05 15.14 101.93 15.21Q101.81 15.28 101.66 15.38Q101.42 15.48 101.25 15.53Q101.07 15.58 100.98 15.72Q100.93 15.82 100.93 15.99Q100.93 16.16 100.88 16.26Q100.88 16.50 100.85 16.85Q100.83 17.19 100.88 17.43Q100.88 17.82 100.90 18.24Q100.93 18.65 100.88 19.04Q100.88 19.29 100.93 19.56Q100.98 19.82 100.93 20.07Q100.88 20.31 100.85 20.56Q100.83 20.80 100.68 20.95Q100.44 20.80 100.51 20.61Q100.59 20.41 100.54 20.17Q100.54 20.07 100.46 19.92Q100.39 19.78 100.39 19.63Q100.34 19.14 100.27 18.68Q100.20 18.21 100.10 17.68Q100.10 17.48 100.12 17.29Q100.15 17.09 100.10 16.89Q100.05 16.21 100.10 15.53Q100.15 14.84 100.59 14.45Q100.68 14.36 100.90 14.28Q101.12 14.21 101.27 14.16Q101.46 14.11 101.68 14.18Q101.90 14.26 102.15 14.21Q102.29 14.21 102.44 14.11Q102.59 14.01 102.73 13.92Q102.88 13.87 103.22 13.82Q103.56 13.77 103.81 13.82Q103.96 13.82 104.10 13.94Q104.25 14.06 104.44 14.06Q104.69 14.06 104.91 13.94Q105.13 13.82 105.37 13.82Q105.57 13.82 105.74 13.92Q105.91 14.01 106.10 14.01Q106.25 14.01 106.42 13.94Q106.59 13.87 106.74 13.87Q107.13 13.87 107.47 13.82Q107.81 13.77 108.20 13.77Q108.69 13.77 109.16 13.72Q109.62 13.67 110.16 13.67Q110.60 13.67 111.01 13.75Q111.43 13.82 111.87 13.87Q112.40 13.92 112.92 13.89Q113.43 13.87 113.92 14.11Q113.96 14.21 114.11 14.36Q114.26 14.50 114.16 14.70Q114.06 14.84 113.62 14.99Q113.18 15.14 112.94 15.19Q112.35 15.09 112.21 15.16Q112.06 15.23 111.82 15.33Q111.43 15.43 111.08 15.41Q110.74 15.38 110.25 15.33Q109.86 15.33 109.62 15.38Q109.38 15.43 109.13 15.33Q108.89 15.23 108.74 14.99Q108.59 14.75 108.50 14.55Q107.37 14.45 106.42 14.55Q105.47 14.65 104.35 14.55M138.09 17.33Q137.99 17.33 137.72 17.21Q137.45 17.09 137.23 16.94Q137.01 16.80 136.99 16.65Q136.96 16.50 137.30 16.41Q137.60 16.31 137.92 16.48Q138.23 16.65 138.48 16.80Q138.72 16.89 139.01 16.99Q139.31 17.09 139.55 17.24Q139.79 17.38 140.01 17.55Q140.23 17.72 140.43 17.82Q140.67 17.97 141.02 18.19Q141.36 18.41 141.26 18.70Q141.21 18.90 141.04 18.90Q140.87 18.90 140.77 19.14Q140.33 19.14 139.77 19.12Q139.21 19.09 138.92 18.75Q138.82 18.60 138.77 18.41Q138.72 18.21 138.62 17.97Q138.53 17.72 138.35 17.63Q138.18 17.53 138.09 17.33M147.56 34.81Q147.51 35.06 147.53 35.35Q147.56 35.64 147.56 35.99Q147.51 36.52 147.44 37.11Q147.36 37.70 147.27 38.23Q147.17 38.87 147.17 39.43Q147.17 39.99 147.12 40.53Q147.02 41.46 146.90 42.24Q146.78 43.02 146.63 43.99Q146.14 44.24 145.80 44.34Q145.65 44.63 145.75 44.92Q145.85 45.21 145.75 45.51Q145.70 45.75 145.53 46.02Q145.36 46.29 145.17 46.53Q144.34 48.00 143.16 49.12Q142.82 49.56 142.63 49.78Q142.43 50 142.19 50.24Q141.94 50.44 141.72 50.59Q141.50 50.73 141.26 50.93Q140.87 51.17 140.50 51.42Q140.14 51.66 139.70 51.90Q139.21 52.10 138.79 52.25Q138.38 52.39 137.79 52.49Q137.55 52.59 137.40 52.66Q137.26 52.73 137.06 52.78Q136.91 52.78 136.77 52.76Q136.62 52.73 136.52 52.78Q135.84 52.88 135.42 52.81Q135.01 52.73 134.67 52.64Q134.38 52.59 134.20 52.44Q134.03 52.29 133.79 52.15Q133.11 51.90 132.98 51.83Q132.86 51.76 132.52 51.71Q131.69 51.61 130.71 51.71Q129.74 51.81 129.10 51.95Q128.91 52.10 128.69 52.17Q128.47 52.25 128.22 52.34Q127.10 52.25 126.03 52.25Q124.95 52.25 123.83 52.15Q123.39 52.10 122.97 52.17Q122.56 52.25 122.07 52.29Q121.83 52.29 121.61 52.27Q121.39 52.25 121.14 52.25Q120.46 52.20 119.80 52.29Q119.14 52.39 118.51 52.34Q117.33 52.25 116.46 52.37Q115.58 52.49 114.89 52.15Q114.60 52.05 114.36 51.83Q114.11 51.61 113.72 51.51Q113.33 51.37 112.92 51.37Q112.50 51.37 112.11 51.42Q111.72 51.51 111.28 51.54Q110.84 51.56 110.35 51.66Q110.21 51.76 110.08 51.81Q109.96 51.86 109.77 51.95Q109.67 52.00 109.50 51.98Q109.33 51.95 109.18 52.00Q108.94 52.10 108.69 52.17Q108.45 52.25 108.20 52.25Q108.01 52.20 107.79 52.15Q107.57 52.10 107.37 52.05Q106.88 52.05 106.45 52.12Q106.01 52.20 105.47 52.15L104.88 52.00Q104.74 51.95 104.57 51.98Q104.39 52.00 104.20 51.95Q103.86 51.86 103.59 51.61Q103.32 51.37 102.98 51.42Q102.73 51.17 102.39 50.90Q102.05 50.63 101.95 50.29Q101.86 50.05 101.88 49.76Q101.90 49.46 101.90 49.12Q101.86 48.63 101.90 48.27Q101.95 47.90 101.95 47.51Q102.00 47.17 101.90 46.78Q101.81 46.39 101.81 46.00Q101.81 45.85 101.83 45.70Q101.86 45.56 101.81 45.41Q101.76 45.02 101.68 44.68Q101.61 44.34 101.81 43.95Q102.15 43.31 102.20 43.26Q102.34 42.87 102.49 42.38Q102.64 41.89 102.59 41.26Q102.49 40.58 102.20 40.09Q101.90 39.60 101.90 38.92Q101.90 38.57 101.93 38.23Q101.95 37.89 102.00 37.50Q102.00 37.21 101.98 36.94Q101.95 36.67 101.95 36.43Q101.95 36.18 102.00 35.99Q102.05 35.79 102.05 35.55Q102.05 34.72 102.10 33.91Q102.15 33.11 102.34 32.37Q102.59 31.69 102.88 31.10Q103.17 30.52 103.27 29.83Q103.37 29.00 103.27 28.03Q103.17 27.20 102.73 26.59Q102.29 25.98 102.15 25.29Q102.10 24.56 102.12 24.10Q102.15 23.63 102.15 23.19Q102.15 22.71 102.22 22.24Q102.29 21.78 102.25 21.34Q102.20 20.61 102.25 20.29Q102.29 19.97 102.29 19.68Q102.25 18.95 102.32 18.63Q102.39 18.31 102.39 17.97Q102.44 17.29 102.54 17.09Q102.64 16.89 102.78 16.65Q103.03 16.55 103.27 16.43Q103.52 16.31 103.86 16.16Q104.25 15.92 104.81 15.89Q105.37 15.87 105.91 15.82Q106.84 15.67 107.15 15.75Q107.47 15.82 107.57 16.21Q108.15 16.60 108.91 16.67Q109.67 16.75 110.35 16.94Q111.33 17.19 112.35 16.70Q113.18 16.41 113.38 16.41Q114.65 16.31 116.09 16.38Q117.53 16.46 118.80 16.46Q118.99 16.46 119.48 16.55Q119.68 16.55 119.87 16.55Q120.07 16.55 120.17 16.60Q120.26 16.70 120.36 16.80Q120.46 16.89 120.56 16.99Q120.80 17.24 121.26 17.36Q121.73 17.48 122.12 17.38Q122.51 17.29 122.73 17.02Q122.95 16.75 123.24 16.65Q123.44 16.60 123.75 16.60Q124.07 16.60 124.32 16.55Q124.66 16.55 124.95 16.53Q125.24 16.50 125.49 16.50Q125.73 16.50 126.07 16.48Q126.42 16.46 126.66 16.55Q127.05 16.65 127.27 16.92Q127.49 17.19 127.88 17.29Q129.30 17.43 130.03 17.04Q131.35 16.94 132.50 17.07Q133.64 17.19 134.67 17.19Q135.35 17.38 136.13 17.53Q136.38 17.63 136.67 17.68Q136.96 17.72 137.16 17.82Q137.26 17.92 137.33 18.14Q137.40 18.36 137.45 18.51Q137.55 18.75 137.62 18.99Q137.70 19.24 137.84 19.48Q138.18 19.78 138.67 19.95Q139.16 20.12 139.70 20.26Q139.99 20.31 140.31 20.24Q140.63 20.17 140.92 20.26Q141.16 20.31 141.33 20.36Q141.50 20.41 141.70 20.51Q141.89 20.61 142.09 20.63Q142.29 20.65 142.43 20.75Q142.97 21.44 143.33 21.63Q143.70 21.83 143.95 22.07Q144.04 22.17 144.12 22.31Q144.19 22.46 144.29 22.56Q144.53 22.80 144.68 23.07Q144.82 23.34 145.07 23.73Q145.17 23.88 145.34 24.02Q145.51 24.17 145.61 24.41Q145.80 24.71 145.92 25.05Q146.04 25.39 146.29 25.68Q146.88 27.54 147.14 29.66Q147.41 31.79 147.61 33.98Q147.61 34.18 147.58 34.38Q147.56 34.57 147.56 34.81M105.13 37.21Q105.13 36.77 105.10 36.23Q105.08 35.69 105.13 35.30Q105.22 34.96 105.32 34.59Q105.42 34.23 105.42 33.98Q105.37 33.74 105.18 33.47Q104.98 33.20 104.74 33.25Q104.59 33.25 104.49 33.37Q104.39 33.50 104.25 33.59Q104.15 33.98 104.08 34.57Q104.00 35.16 103.91 35.60Q104.20 36.23 104.17 37.01Q104.15 37.79 104.20 38.48Q104.30 38.53 104.42 38.70Q104.54 38.87 104.74 38.87Q105.03 38.87 105.13 38.67Q105.22 38.48 105.22 38.21Q105.22 37.94 105.18 37.65Q105.13 37.35 105.13 37.21M106.20 24.85Q106.49 24.71 106.59 24.39Q106.69 24.07 106.54 23.78Q106.35 23.68 106.15 23.56Q105.96 23.44 105.71 23.44Q105.52 23.68 105.18 23.90Q104.83 24.12 104.88 24.56Q104.93 24.80 105.42 24.88Q105.91 24.95 106.20 24.85M106.69 20.17Q106.93 20.07 107.25 20.02Q107.57 19.97 107.81 19.85Q108.06 19.73 108.23 19.53Q108.40 19.34 108.35 18.95Q108.06 18.80 107.76 18.77Q107.47 18.75 107.23 18.65Q106.84 18.55 106.62 18.36Q106.40 18.16 106.01 18.07Q105.57 18.07 105.27 18.33Q104.98 18.60 104.74 18.85Q104.64 19.48 104.59 20.24Q104.54 21.00 104.69 21.53Q105.47 21.73 105.91 21.22Q106.35 20.70 106.69 20.17M115.58 42.19Q115.58 41.99 115.43 41.92Q115.28 41.85 115.06 41.85Q114.84 41.85 114.62 41.92Q114.40 41.99 114.31 42.09Q114.31 42.72 115.14 42.72Q115.23 42.58 115.41 42.48Q115.58 42.38 115.58 42.19M114.36 47.95Q115.04 48.05 115.84 47.85Q116.65 47.66 116.85 46.92Q116.31 46.68 116.04 46.17Q115.77 45.65 115.72 44.97Q115.63 44.82 115.43 44.68Q115.23 44.53 115.09 44.63Q114.84 44.82 114.65 45.31Q114.45 45.80 114.36 46.19Q114.26 46.73 114.16 47.19Q114.06 47.66 114.36 47.95M131.88 34.08Q131.93 33.98 131.93 33.81Q131.93 33.64 131.93 33.54Q131.98 33.20 131.86 32.86Q131.74 32.52 131.64 32.32Q131.49 32.13 131.35 32.06Q131.20 31.98 131.20 31.79Q131.15 31.64 131.20 31.45Q131.25 31.25 131.25 31.10L131.25 30.13Q131.25 29.93 131.23 29.79Q131.20 29.64 131.20 29.44Q131.20 29.10 131.23 28.83Q131.25 28.56 131.20 28.17Q131.10 27.15 130.86 26.37Q130.62 25.59 129.93 25.10Q129.44 24.85 129.37 24.78Q129.30 24.71 129.20 24.61Q128.91 24.37 128.59 24.27Q128.27 24.17 127.78 24.07Q127.15 23.88 126.76 23.83Q126.37 23.78 126.03 23.83Q125.68 23.88 125.34 23.78Q125.10 23.73 125 23.75Q124.90 23.78 124.76 23.78Q124.22 23.83 123.58 23.58Q123.19 23.68 122.88 23.61Q122.56 23.54 122.17 23.49Q121.92 23.49 121.73 23.51Q121.53 23.54 121.29 23.49Q120.85 23.44 120.34 23.32Q119.82 23.19 119.43 23.39Q119.04 24.61 118.99 25.37Q118.95 26.12 118.85 27.00Q118.60 27.69 118.19 28.30Q117.77 28.91 117.87 29.64Q117.97 30.32 118.38 30.86Q118.80 31.40 118.90 32.08Q118.95 32.57 118.97 32.89Q118.99 33.20 118.90 33.54Q118.95 35.06 118.82 36.45Q118.70 37.84 118.70 39.40Q118.70 40.09 118.68 40.72Q118.65 41.36 118.65 41.99Q118.65 42.29 118.60 42.55Q118.55 42.82 118.51 43.07Q118.51 43.31 118.60 43.70Q118.60 44.04 118.55 44.31Q118.51 44.58 118.60 44.87Q118.70 44.97 118.73 45.09Q118.75 45.21 118.85 45.36Q119.43 45.36 120.02 45.41Q120.61 45.46 121.14 45.46Q121.39 45.46 121.58 45.41Q121.78 45.36 121.97 45.31Q122.27 45.31 122.58 45.39Q122.90 45.46 123.24 45.46Q123.58 45.80 123.88 46.22Q124.17 46.63 124.76 46.73Q124.95 46.78 125.17 46.75Q125.39 46.73 125.54 46.68Q125.93 46.63 126.10 46.34Q126.27 46.04 126.46 45.65Q126.66 45.46 126.78 45.31Q126.90 45.17 127.15 45.07Q128.13 44.87 128.56 44.58Q129.00 44.29 129.25 43.99Q129.44 43.70 129.52 43.58Q129.59 43.46 129.74 43.21Q130.13 42.53 130.27 41.70Q130.27 41.50 130.32 41.33Q130.37 41.16 130.42 40.97Q130.47 40.58 130.44 40.14Q130.42 39.70 130.47 39.26Q130.57 38.87 130.54 38.50Q130.52 38.13 130.57 37.74Q130.62 37.55 130.66 37.35Q130.71 37.16 130.71 36.96Q130.71 36.72 130.66 36.52Q130.62 36.33 130.66 36.13Q130.81 35.84 131.05 35.60Q131.30 35.35 131.49 35.06Q131.59 34.91 131.59 34.69Q131.59 34.47 131.69 34.33L131.88 34.08M133.79 25.88Q134.03 25.93 134.28 25.83Q134.52 25.73 134.72 25.63Q135.06 25.10 134.99 24.37Q134.91 23.63 134.52 23.19Q134.28 22.95 133.94 22.85Q133.59 22.75 133.20 22.66Q132.76 22.51 132.32 22.44Q131.88 22.36 131.69 22.90Q132.08 23.14 132.54 23.39Q133.01 23.63 133.25 24.12Q133.30 24.32 133.35 24.61Q133.40 24.90 133.42 25.17Q133.45 25.44 133.54 25.63Q133.64 25.83 133.79 25.88M134.28 28.76Q134.96 28.86 135.18 28.34Q135.40 27.83 135.01 27.44Q134.52 27.34 134.35 27.78Q134.18 28.22 134.28 28.76M140.92 48.63Q141.16 48.24 141.48 47.85Q141.80 47.46 141.55 46.88Q140.87 46.73 140.53 47.07Q140.43 47.17 140.43 47.34Q140.43 47.51 140.33 47.61Q140.19 47.85 139.62 48.22Q139.06 48.58 138.67 48.68Q138.38 48.68 138.06 48.63Q137.74 48.58 137.50 48.63Q137.06 48.68 136.89 49.02Q136.72 49.37 136.82 49.80Q137.65 50.24 137.96 50.22Q138.28 50.20 138.72 50.10Q138.92 50 139.16 49.98Q139.40 49.95 139.50 49.90Q139.79 49.80 140.01 49.46Q140.23 49.12 140.48 48.93L140.92 48.63M124.56 24.76Q124.80 24.85 124.95 25.02Q125.10 25.20 124.95 25.44Q124.41 25.73 123.93 25.63Q123.44 25.54 122.90 25.54Q122.51 25.54 122.34 25.56Q122.17 25.59 121.92 25.93Q121.48 26.56 121.44 26.83Q121.39 27.10 121.29 27.29Q121.19 27.39 121.04 27.59Q120.90 27.78 120.80 27.83Q120.65 27.83 120.39 27.71Q120.12 27.59 120.07 27.44Q120.07 27.05 120.17 26.61Q120.26 26.17 120.26 25.78Q120.31 25.29 120.41 24.93Q120.51 24.56 120.80 24.32Q121.24 24.17 121.68 24.34Q122.12 24.51 122.66 24.61Q123.19 24.71 123.68 24.68Q124.17 24.66 124.56 24.76M120.26 28.37Q120.75 28.42 120.90 28.78Q121.04 29.15 121.00 29.54Q120.80 29.74 120.68 29.93Q120.56 30.13 120.21 30.22Q119.92 29.98 119.95 29.30Q119.97 28.61 120.26 28.37M100.54 40.23Q100.93 40.33 101.07 41.11Q101.22 41.89 101.17 42.43Q101.12 42.82 100.95 43.16Q100.78 43.51 100.39 43.51Q100.20 44.04 100.34 44.51Q100.49 44.97 100.54 45.51Q100.54 46.24 100.63 46.41Q100.73 46.58 100.73 46.78Q100.78 46.88 100.76 47.02Q100.73 47.17 100.73 47.31Q100.78 47.75 100.83 48.44Q100.88 49.12 100.49 49.51Q99.85 49.37 99.83 48.71Q99.80 48.05 99.71 47.36Q99.71 47.17 99.68 46.97Q99.66 46.78 99.66 46.68Q99.71 45.70 99.73 44.51Q99.76 43.31 99.90 42.38Q100 42.14 100.07 41.94Q100.15 41.75 100.24 41.60Q100.34 41.26 100.32 40.87Q100.29 40.48 100.54 40.23M140.82 52.64Q140.97 53.27 140.50 53.56Q140.04 53.86 139.79 53.96Q139.06 54.20 138.60 54.27Q138.13 54.35 137.65 54.44Q136.67 54.44 135.89 54.44Q135.11 54.44 134.28 54.39Q133.74 54.35 133.15 54.25Q132.57 54.15 131.93 54.25Q131.25 54.35 130.59 54.52Q129.93 54.69 129.35 54.74Q129.05 54.74 128.76 54.69Q128.47 54.64 128.17 54.59Q127.98 54.59 127.76 54.57Q127.54 54.54 127.37 54.52Q127.20 54.49 127.08 54.37Q126.95 54.25 127.00 54.00Q127.10 53.61 127.61 53.49Q128.13 53.37 128.42 53.22Q129.00 53.37 129.64 53.34Q130.27 53.32 130.96 53.22Q131.35 53.17 131.64 53.05Q131.93 52.93 132.18 53.22Q132.47 53.27 132.81 53.32Q133.15 53.37 133.54 53.42Q133.84 53.52 134.13 53.64Q134.42 53.76 134.72 53.86Q135.40 53.96 135.99 53.86Q136.57 53.76 137.11 53.66Q137.35 53.61 137.65 53.66Q137.94 53.71 138.18 53.66Q138.96 53.52 139.60 53.13Q139.94 53.08 140.04 52.95Q140.14 52.83 140.26 52.73Q140.38 52.64 140.53 52.59Q140.67 52.54 140.82 52.64ZM153.81 15.72Q153.47 15.77 153.08 15.72Q152.69 15.67 152.39 15.53Q152.29 15.28 152.34 15.01Q152.39 14.75 152.64 14.65Q153.13 14.60 153.25 14.53Q153.37 14.45 153.47 14.45Q153.76 14.45 154.10 14.50Q154.44 14.55 154.79 14.60Q155.27 14.60 155.76 14.53Q156.25 14.45 156.64 14.60Q156.84 14.79 156.69 14.99Q156.54 15.19 156.30 15.23Q156.01 15.33 155.47 15.23Q154.93 15.14 154.54 15.23Q154.30 15.33 154.17 15.50Q154.05 15.67 153.81 15.72M147.85 15.53Q147.71 15.87 147.46 16.14Q147.22 16.41 147.12 16.80Q147.31 17.33 147.44 17.90Q147.56 18.46 147.75 18.99Q147.31 18.75 147.05 18.51Q146.78 18.26 146.51 18.02Q146.24 17.77 146.04 17.48Q145.85 17.19 145.85 16.75Q145.85 16.60 145.92 16.48Q146.00 16.36 146.04 16.21Q146.09 15.92 146.02 15.65Q145.95 15.38 146.09 15.14Q146.34 15.09 146.53 15.06Q146.73 15.04 147.02 15.04Q147.80 14.84 148.32 14.75Q148.83 14.65 149.41 14.60Q149.80 14.40 150.24 14.55Q150.68 14.70 151.22 14.60Q151.46 14.84 151.17 14.99Q150.88 15.14 150.63 15.14Q149.56 15.04 148.90 15.19Q148.24 15.33 147.85 15.53M192.68 17.53Q192.92 17.63 193.04 17.90Q193.16 18.16 193.07 18.51Q192.97 18.80 192.68 19.12Q192.38 19.43 192.14 19.68Q191.99 20.07 191.67 20.36Q191.36 20.65 191.11 20.95Q190.23 21.78 189.45 22.75Q188.67 23.73 187.84 24.66Q187.55 25.29 187.11 25.73Q186.67 26.17 186.28 26.71Q185.94 26.90 185.74 27.17Q185.55 27.44 185.30 27.69Q185.06 27.93 184.84 28.17Q184.62 28.42 184.42 28.76Q184.18 28.86 183.96 28.91Q183.74 28.96 183.54 29.10Q183.45 29.20 183.35 29.35Q183.25 29.49 183.15 29.59Q183.06 29.69 182.91 29.74Q182.76 29.79 182.67 29.88Q182.57 30.08 182.52 30.30Q182.47 30.52 182.28 30.66Q181.45 32.03 180.57 33.01Q179.69 33.98 178.86 35.06Q178.91 35.50 178.81 35.91Q178.71 36.33 178.66 36.82Q178.56 37.60 178.66 38.45Q178.76 39.31 178.71 39.99Q178.71 40.19 178.66 40.36Q178.61 40.53 178.61 40.77Q178.61 41.41 178.56 42.09Q178.52 42.77 178.47 43.46Q178.47 43.95 178.49 44.34Q178.52 44.73 178.47 45.26Q178.42 45.75 178.34 46.44Q178.27 47.12 178.17 47.61Q178.13 48.00 178.10 48.02Q178.08 48.05 177.78 48.19Q177.29 48.63 177.22 48.68Q177.15 48.73 177.00 48.97Q176.76 49.37 177.05 50Q177.15 50.29 177.29 50.49Q177.44 50.68 177.78 50.83Q178.08 51.37 177.95 51.93Q177.83 52.49 177.44 52.73Q177.25 52.69 177.12 52.73Q177.00 52.78 176.86 52.83Q176.07 52.69 175.22 52.76Q174.37 52.83 173.54 52.78Q173.00 52.69 172.90 52.73Q172.80 52.78 172.71 52.78Q172.27 52.88 171.68 52.76Q171.09 52.64 170.65 52.54Q170.31 52.44 170.02 52.37Q169.73 52.29 169.34 52.25Q168.85 52.25 168.65 52.15Q168.16 51.71 167.92 51.64Q167.68 51.56 167.43 51.56Q167.04 51.56 166.77 51.73Q166.50 51.90 166.21 52.05Q165.82 52.20 165.45 52.25Q165.09 52.29 164.75 52.54Q163.87 52.29 163.48 51.93Q163.09 51.56 162.84 51.03Q162.60 50.54 162.48 50.17Q162.35 49.80 162.30 49.12Q162.26 48.14 162.33 47.00Q162.40 45.85 162.35 44.87Q162.21 43.99 162.26 43.48Q162.30 42.97 162.26 42.43Q162.26 42.04 162.23 41.72Q162.21 41.41 162.35 41.11Q162.45 40.87 162.72 40.63Q162.99 40.38 163.09 40.19Q163.33 39.65 163.21 39.18Q163.09 38.72 162.84 38.33Q162.70 37.99 162.55 37.67Q162.40 37.35 162.11 37.16Q162.16 36.33 162.21 35.60Q162.26 34.86 162.16 34.03Q161.91 33.79 161.69 33.52Q161.47 33.25 161.23 32.91Q160.64 32.18 160.03 31.52Q159.42 30.86 158.89 30.03Q158.54 29.79 158.33 29.37Q158.11 28.96 157.86 28.56Q157.62 28.22 157.40 27.98Q157.18 27.73 156.98 27.39Q156.98 26.76 156.62 26.44Q156.25 26.12 155.86 25.83Q155.22 25.59 155.00 25.27Q154.79 24.95 154.54 24.66Q154.44 24.51 154.30 24.39Q154.15 24.27 154.05 24.12Q153.66 23.44 153.32 23.07Q152.98 22.71 152.64 22.31Q152.54 22.17 152.42 22.05Q152.29 21.92 152.20 21.83Q151.81 21.44 151.49 20.97Q151.17 20.51 150.78 20.02Q150.44 19.58 150.15 19.12Q149.85 18.65 149.46 18.26Q148.97 17.68 148.75 17.41Q148.54 17.14 148.73 16.80Q149.22 16.46 149.27 16.38Q149.32 16.31 149.37 16.26Q149.95 16.16 150.07 16.21Q150.20 16.26 150.34 16.26Q150.83 16.31 151.29 16.28Q151.76 16.26 152.05 16.36Q152.25 16.46 152.34 16.63Q152.44 16.80 152.64 16.89Q153.47 17.04 153.88 16.80Q154.30 16.55 154.69 16.26Q155.18 16.36 155.62 16.33Q156.05 16.31 156.54 16.41Q157.13 16.55 157.37 16.53Q157.62 16.50 157.86 16.50Q158.11 16.50 158.35 16.55Q158.59 16.60 158.79 16.55Q158.89 16.55 159.01 16.50Q159.13 16.46 159.33 16.46Q159.96 16.41 160.57 16.46Q161.18 16.50 161.77 16.36Q162.45 16.50 163.06 16.48Q163.67 16.46 164.21 16.55Q164.45 16.60 164.62 16.70Q164.79 16.80 165.04 16.70Q165.48 17.24 165.89 17.82Q166.31 18.41 166.65 18.99Q166.99 19.29 167.24 19.68Q167.48 20.07 167.72 20.46Q167.72 21.04 167.92 21.44Q168.12 21.83 168.26 22.22Q168.51 22.31 168.70 22.49Q168.90 22.66 169.14 22.75Q169.78 22.80 169.97 23.00Q170.17 23.19 170.41 23.29Q170.90 24.32 171.75 24.98Q172.61 25.63 173.19 26.56Q173.63 27.10 173.95 27.32Q174.27 27.54 174.46 27.73Q174.56 27.83 174.63 27.98Q174.71 28.13 174.90 28.17Q175.24 28.17 175.42 27.88Q175.59 27.59 175.98 27.59Q177.15 26.22 178.30 24.83Q179.44 23.44 180.81 22.31Q181.30 21.44 182.03 20.85Q182.76 20.26 183.20 19.38Q183.79 19.14 184.42 19.04Q185.06 18.95 185.45 18.41Q185.55 18.26 185.62 18.07Q185.69 17.87 185.79 17.77Q185.89 17.68 186.25 17.53Q186.62 17.38 186.82 17.33Q187.16 17.33 187.48 17.38Q187.79 17.43 188.04 17.48Q188.38 17.53 188.67 17.48Q188.96 17.43 189.31 17.48Q189.40 17.48 189.55 17.50Q189.70 17.53 189.84 17.53Q190.04 17.53 190.21 17.48Q190.38 17.43 190.63 17.43Q190.77 17.43 190.92 17.46Q191.06 17.48 191.26 17.48Q191.60 17.53 191.94 17.48Q192.29 17.43 192.68 17.53M164.50 20.36Q164.65 20.07 164.65 19.82Q164.26 19.58 164.06 19.09Q163.87 18.60 163.62 18.21Q163.38 18.12 163.01 18.04Q162.65 17.97 162.26 17.97Q161.87 17.97 161.57 18.07Q161.28 18.16 161.23 18.46Q161.23 18.70 161.40 18.82Q161.57 18.95 161.82 18.99Q162.06 19.04 162.35 19.09Q162.65 19.14 162.79 19.24Q162.89 19.48 163.04 19.75Q163.18 20.02 163.40 20.21Q163.62 20.41 163.89 20.48Q164.16 20.56 164.50 20.36M166.21 21.58Q165.87 21.58 165.60 21.63Q165.33 21.68 165.23 21.92Q165.53 22.31 166.06 22.36Q166.16 22.22 166.19 22.00Q166.21 21.78 166.21 21.58M164.50 43.26Q164.40 43.55 164.53 43.90Q164.65 44.24 164.89 44.29Q165.04 44.34 165.26 44.24Q165.48 44.14 165.67 43.97Q165.87 43.80 165.99 43.58Q166.11 43.36 166.02 43.16Q165.77 42.92 165.45 42.72Q165.14 42.53 164.75 42.63Q164.79 42.77 164.67 42.92Q164.55 43.07 164.50 43.26M166.46 50.15Q166.85 50.05 167.09 49.58Q167.33 49.12 167.09 48.73Q166.85 48.58 166.48 48.56Q166.11 48.54 165.72 48.49Q165.33 47.95 165.21 47.22Q165.09 46.48 164.89 45.80Q164.60 45.80 164.50 46.07Q164.40 46.34 164.40 46.73Q164.40 47.12 164.48 47.51Q164.55 47.90 164.55 48.10Q164.60 48.58 164.58 49.00Q164.55 49.41 164.75 49.76Q165.67 50.24 166.21 49.95L166.46 50.15M176.37 31.25Q176.61 30.81 176.95 30.13Q177.29 29.44 177.20 28.91Q176.71 29.10 176.39 29.39Q176.07 29.69 175.78 30.03Q175.49 30.18 175.10 30.25Q174.71 30.32 174.41 30.13Q174.32 30.57 174.37 30.88Q174.41 31.20 174.51 31.49Q174.71 31.64 174.85 31.76Q175 31.88 175.24 31.98Q175.78 32.08 175.98 31.84Q176.17 31.59 176.37 31.25M179.20 21.88Q179.25 22.12 179.10 22.44Q178.96 22.75 178.74 22.95Q178.52 23.14 178.30 23.17Q178.08 23.19 178.03 22.85Q177.98 22.61 178.10 22.29Q178.22 21.97 178.42 21.78Q178.61 21.58 178.83 21.56Q179.05 21.53 179.20 21.88M174.02 26.07Q173.78 25.83 173.44 25.49Q173.10 25.15 173.49 24.76Q173.83 24.76 174.02 24.93Q174.22 25.10 174.51 25.05Q175.59 25.20 175.93 24.58Q176.27 23.97 176.76 23.58Q176.86 23.49 177.05 23.36Q177.25 23.24 177.49 23.34Q177.49 23.83 177.12 24.34Q176.76 24.85 176.46 25.15Q176.27 25.34 176.03 25.66Q175.78 25.98 175.59 26.12Q175.34 26.37 174.93 26.51Q174.51 26.66 174.22 26.37L174.02 26.07M184.96 30.27Q184.96 29.74 185.28 29.47Q185.60 29.20 186.13 29.10Q186.43 29.39 186.38 29.76Q186.33 30.13 186.08 30.35Q185.84 30.57 185.52 30.59Q185.21 30.62 184.96 30.27M184.13 30.66Q184.38 30.76 184.52 30.74Q184.67 30.71 184.77 30.86Q184.81 31.15 184.72 31.25Q184.62 31.35 184.57 31.54Q184.23 31.93 184.03 32.15Q183.84 32.37 183.74 32.76Q183.45 33.11 183.13 33.37Q182.81 33.64 182.47 33.94Q182.13 34.23 181.86 34.55Q181.59 34.86 181.40 35.30Q181.01 37.45 180.96 39.55Q180.71 39.79 180.20 39.89Q179.69 39.99 179.59 39.55Q179.54 39.36 179.64 39.04Q179.74 38.72 179.74 38.43Q179.69 37.89 179.74 37.74Q179.79 37.60 179.83 37.40Q179.88 37.06 179.86 36.69Q179.83 36.33 179.88 35.99Q179.93 35.60 180.08 35.33Q180.22 35.06 180.22 34.81Q181.20 33.79 182.20 32.84Q183.20 31.88 184.03 30.71L184.13 30.66M162.94 52.73Q162.99 52.78 163.16 53.05Q163.33 53.32 163.33 53.42Q163.28 53.56 163.09 53.59Q162.89 53.61 162.67 53.59Q162.45 53.56 162.26 53.52Q162.06 53.47 162.01 53.47Q161.77 53.42 161.47 53.42Q161.18 53.42 160.94 53.32Q160.69 53.22 160.52 52.91Q160.35 52.59 160.40 52.25Q160.55 51.81 160.50 51.73Q160.45 51.66 160.45 51.51Q160.40 51.27 160.40 50.93Q160.40 50.59 160.40 50.29L160.40 49.56Q160.50 49.12 160.42 49.00Q160.35 48.88 160.35 48.73Q160.35 48.05 160.69 47.71Q160.94 47.66 161.16 48.00Q161.38 48.34 161.38 48.63Q161.08 49.51 161.16 49.73Q161.23 49.95 161.38 50.20Q161.47 50.88 161.79 51.32Q162.11 51.76 162.26 52.39Q162.35 52.54 162.55 52.56Q162.74 52.59 162.94 52.73M168.07 52.54Q168.26 52.64 168.43 52.83Q168.60 53.03 168.85 53.13Q169.48 53.27 170.26 53.34Q171.04 53.42 171.44 53.86Q170.65 54.10 170.17 54.15Q169.68 54.20 169.14 54.15Q168.99 54.10 168.75 54.03Q168.51 53.96 168.26 53.96Q168.02 54.00 167.70 54.08Q167.38 54.15 167.09 54.10Q166.75 54.05 166.46 53.98Q166.16 53.91 165.82 53.91Q165.72 53.76 165.82 53.32Q166.26 53.17 166.26 53.10Q166.26 53.03 166.36 52.93Q166.50 52.88 166.60 52.83Q166.70 52.78 166.89 52.73Q167.09 52.54 167.41 52.47Q167.72 52.39 168.07 52.54ZM240.43 49.66Q240.48 49.85 240.38 49.95Q240.28 50.05 240.38 50.24Q239.75 50.88 238.53 51.22Q238.13 51.37 237.65 51.37Q237.35 51.37 237.06 51.32Q236.77 51.27 236.52 51.32Q236.13 51.46 235.96 51.81Q235.79 52.15 235.69 52.54Q235.16 52.78 234.64 52.86Q234.13 52.93 233.69 53.13Q233.50 53.22 233.37 53.30Q233.25 53.37 233.01 53.47Q232.76 53.56 232.54 53.56Q232.32 53.56 232.13 53.86Q231.49 54.00 230.86 54.27Q230.22 54.54 229.59 54.71Q228.96 54.88 228.32 54.91Q227.69 54.93 227.10 54.59Q226.27 53.61 225.88 52.95Q225.49 52.29 224.95 51.66Q224.76 51.42 224.54 51.20Q224.32 50.98 224.22 50.73Q223.88 50.05 223.68 49.76Q223.49 49.46 223.29 49.12Q222.85 48.49 222.53 47.80Q222.22 47.12 221.73 46.53Q220.02 46.53 218.41 46.73Q216.80 46.92 215.28 46.92Q215.04 46.92 214.82 46.88Q214.60 46.83 214.36 46.78Q214.11 46.78 213.87 46.83Q213.62 46.88 213.38 46.83Q212.74 46.73 212.52 46.61Q212.30 46.48 212.01 46.44Q211.38 46.34 210.84 46.58Q210.30 46.83 209.86 47.12Q209.57 46.97 209.38 47.09Q209.18 47.22 208.89 47.31Q208.54 47.41 208.13 47.41Q207.71 47.41 207.32 47.51Q206.93 47.61 206.49 47.63Q206.05 47.66 205.76 47.85Q205.66 47.95 205.49 48.36Q205.32 48.78 205.22 48.93Q205.18 49.07 205.18 49.22Q205.18 49.37 205.08 49.51Q204.79 50.34 204.59 51.34Q204.39 52.34 204.10 53.17Q203.86 53.37 203.69 53.59Q203.52 53.81 203.27 53.86Q202.93 53.96 202.44 53.88Q201.95 53.81 201.56 53.86Q201.37 53.91 201.17 53.96Q200.98 54.00 200.73 54.00Q200.29 54.05 199.83 54.00Q199.37 53.96 199.02 54.05Q198.83 54.10 198.58 54.27Q198.34 54.44 198.00 54.44Q197.61 54.49 197.22 54.30Q196.97 54.20 196.75 53.93Q196.53 53.66 196.48 53.27Q196.48 52.93 196.58 52.44Q196.68 51.95 196.83 51.51Q196.97 51.07 197.17 50.63Q197.41 50.10 197.66 49.44Q197.90 48.78 198.14 48.19Q197.71 48.10 197.17 48.17Q196.63 48.24 196.09 48.34Q195.85 48.39 195.53 48.39Q195.21 48.39 194.97 48.39Q194.24 48.34 194.09 48.00Q193.95 47.66 193.92 47.22Q193.90 46.78 193.97 46.34Q194.04 45.90 194.19 45.65Q194.19 44.92 194.04 44.34Q194.04 44.19 193.99 44.04Q193.95 43.90 193.95 43.80Q194.14 43.12 194.12 42.72Q194.09 42.33 194.24 42.09Q194.38 41.85 194.63 41.70Q194.87 41.75 195.07 41.63Q195.26 41.50 195.51 41.46Q196.14 41.36 196.75 41.41Q197.36 41.46 198.00 41.26Q198.58 41.80 199.56 41.50Q199.71 41.46 199.90 41.41Q200.10 41.36 200.29 41.31Q200.78 41.11 200.98 41.06Q201.61 41.02 201.73 40.58Q201.86 40.14 201.61 39.84Q202.00 38.92 202.32 37.99Q202.64 37.06 203.03 36.13Q203.17 35.45 203.39 34.84Q203.61 34.23 204.05 33.84Q204.25 33.64 204.59 33.54Q204.93 33.45 205.08 33.20Q205.22 32.96 205.25 32.50Q205.27 32.03 205.18 31.79Q205.13 31.69 205.00 31.54Q204.88 31.40 204.88 31.25Q204.83 31.10 204.93 30.93Q205.03 30.76 205.13 30.52Q205.71 29.15 206.32 27.64Q206.93 26.12 207.57 24.66Q207.81 23.58 208.23 22.66Q208.64 21.73 208.94 20.70Q208.64 20.17 208.13 19.41Q207.62 18.65 207.71 17.82Q207.76 17.48 207.93 17.31Q208.11 17.14 208.35 16.89Q208.74 16.65 209.13 16.53Q209.52 16.41 209.91 16.21Q210.16 16.11 210.38 15.97Q210.60 15.82 210.84 15.72Q211.08 15.63 211.30 15.60Q211.52 15.58 211.72 15.43Q213.53 15.14 214.94 14.21Q215.09 14.11 215.21 13.96Q215.33 13.82 215.58 13.72Q215.82 13.62 216.14 13.50Q216.46 13.38 216.85 13.23Q217.58 12.89 218.43 12.79Q219.29 12.70 220.02 13.09Q220.31 12.99 220.41 13.13Q220.51 13.28 220.75 13.53Q220.85 13.72 221.00 13.82Q221.14 13.92 221.29 14.16Q221.83 14.89 222.24 15.87Q222.66 16.85 223.19 17.68Q223.34 17.92 223.46 18.19Q223.58 18.46 223.78 18.70Q223.88 18.95 224.00 19.12Q224.12 19.29 224.27 19.53Q224.37 19.68 224.44 19.80Q224.51 19.92 224.56 20.02Q224.66 20.26 224.80 20.48Q224.95 20.70 225 20.85Q225.05 21.09 224.98 21.29Q224.90 21.48 224.90 21.68Q225 22.46 225.44 23.05Q225.88 23.63 226.32 24.02Q226.46 24.17 226.66 24.32Q226.86 24.46 227.05 24.61Q227.20 24.76 227.27 24.95Q227.34 25.15 227.59 25.24Q227.83 25.63 228.00 26.12Q228.17 26.61 228.47 26.95Q228.71 27.59 229.10 28.17Q229.49 28.76 229.79 29.39Q229.88 29.64 229.98 29.88Q230.08 30.13 230.18 30.37Q230.62 31.35 231.15 32.32Q231.69 33.30 232.18 34.28Q232.42 34.47 232.52 34.72Q232.62 34.96 232.76 35.21Q233.01 35.45 233.28 35.82Q233.54 36.18 233.64 36.67Q233.69 36.96 233.67 37.33Q233.64 37.70 233.59 38.06Q233.54 38.43 233.57 38.79Q233.59 39.16 233.79 39.45Q234.33 40.23 235.40 40.63Q235.50 40.87 235.74 41.04Q235.99 41.21 236.18 41.46Q236.96 42.92 237.60 43.92Q238.23 44.92 238.77 46.04Q238.87 46.29 239.04 46.56Q239.21 46.83 239.31 47.07Q239.45 47.31 239.50 47.53Q239.55 47.75 239.65 47.95Q239.75 48.19 239.84 48.39Q239.94 48.58 240.04 48.88Q240.14 49.07 240.28 49.29Q240.43 49.51 240.43 49.66M197.51 44.68Q197.61 44.04 197.24 43.85Q196.88 43.65 196.48 43.55Q195.70 43.51 195.56 43.92Q195.41 44.34 195.61 44.58Q195.85 44.82 196.17 45.02Q196.48 45.21 196.83 45.31Q197.07 45.21 197.22 45.04Q197.36 44.87 197.51 44.68M210.79 22.17Q210.69 22.46 210.52 22.78Q210.35 23.10 210.35 23.24Q210.35 23.49 210.57 23.75Q210.79 24.02 211.04 23.97Q211.18 23.93 211.33 23.68Q211.47 23.44 211.57 23.24Q211.72 23.00 211.79 22.80Q211.87 22.61 211.96 22.36Q212.11 21.97 212.45 21.53Q212.79 21.09 212.79 20.70Q212.79 20.51 212.70 20.29Q212.60 20.07 212.50 19.82Q212.26 19.29 212.04 18.82Q211.82 18.36 211.28 18.46Q210.79 18.55 210.74 18.90Q210.55 19.43 210.86 19.75Q211.18 20.07 211.18 20.56Q211.23 21.04 211.08 21.41Q210.94 21.78 210.79 22.17M209.42 25.24Q209.03 25.29 208.86 25.59Q208.69 25.88 208.67 26.25Q208.64 26.61 208.79 26.95Q208.94 27.29 209.18 27.44Q209.62 27.39 209.81 27.12Q210.01 26.86 209.99 26.51Q209.96 26.17 209.79 25.81Q209.62 25.44 209.42 25.24M218.65 39.84Q218.75 39.45 218.51 39.23Q218.26 39.01 218.21 38.62Q218.16 38.23 218.26 37.87Q218.36 37.50 218.26 37.16Q218.16 36.77 217.90 36.57Q217.63 36.38 217.48 36.08Q216.94 36.08 216.77 35.64Q216.60 35.21 216.36 34.72Q215.82 33.94 215.70 33.57Q215.58 33.20 215.28 32.96Q214.84 31.88 214.21 30.83Q213.57 29.79 213.04 28.76Q212.74 29.00 212.70 29.44Q212.65 29.88 212.55 30.27Q212.26 30.86 212.23 30.98Q212.21 31.10 212.16 31.20Q211.96 31.54 211.77 31.49Q211.57 31.45 211.28 31.54Q210.79 31.64 210.60 32.15Q210.40 32.67 210.45 33.20Q210.45 33.45 210.55 33.69Q210.64 33.94 210.64 34.18Q210.69 34.52 210.52 34.89Q210.35 35.25 210.16 35.64Q209.91 36.33 209.77 36.96Q209.62 37.60 209.28 38.13Q209.13 38.87 208.86 39.45Q208.59 40.04 208.50 40.72Q210.69 40.63 212.62 40.60Q214.55 40.58 216.41 40.28Q216.75 40.23 217.02 40.16Q217.29 40.09 217.58 40.09Q217.82 40.09 218.12 40.06Q218.41 40.04 218.65 39.84M225.20 45.90Q225.29 45.70 225.32 45.29Q225.34 44.87 225.29 44.73Q225.24 44.43 224.95 43.95Q224.66 43.46 224.51 43.36Q224.27 43.21 224.00 43.29Q223.73 43.36 223.34 43.36Q222.61 43.31 222.17 43.36Q221.73 43.41 221.34 43.46Q221.00 43.55 220.73 43.51Q220.46 43.46 220.26 43.51Q220.17 43.70 220.04 43.85Q219.92 43.99 219.87 44.24Q220.17 44.48 220.46 44.38Q220.75 44.29 221.24 44.34Q221.44 44.34 221.58 44.36Q221.73 44.38 221.88 44.34Q222.12 44.29 222.29 44.19Q222.46 44.09 222.61 44.09Q223.00 44.09 223.10 44.31Q223.19 44.53 223.34 44.78Q223.39 44.87 223.49 45.00Q223.58 45.12 223.68 45.31Q223.88 45.70 223.97 45.90Q224.07 46.09 224.41 46.19Q224.66 46.09 224.88 46.07Q225.10 46.04 225.20 45.90M229.83 35.79Q230.32 35.40 229.98 34.42Q229.88 34.23 229.71 34.06Q229.54 33.89 229.39 33.64Q229.30 33.45 229.17 33.20Q229.05 32.96 228.86 32.67Q228.76 32.42 228.64 32.23Q228.52 32.03 228.42 31.79Q228.37 31.59 228.37 31.45Q228.37 31.30 228.32 31.15Q228.22 30.96 228.13 30.74Q228.03 30.52 227.88 30.32Q227.64 29.93 227.42 29.71Q227.20 29.49 226.76 29.39Q226.61 29.54 226.34 29.59Q226.07 29.64 225.88 29.59Q225.68 30.27 226.15 30.64Q226.61 31.01 227.00 31.25Q227.44 31.79 227.66 32.86Q227.88 33.94 228.22 34.72Q228.27 34.91 228.34 35.06Q228.42 35.21 228.52 35.40Q228.76 35.74 229.03 35.82Q229.30 35.89 229.83 35.79M236.87 49.56Q237.01 49.51 237.33 49.19Q237.65 48.88 237.65 48.63Q237.65 48.58 237.45 48.10Q237.30 47.61 237.16 47.17Q237.01 46.73 236.52 46.83Q236.33 46.88 236.13 47.02Q235.94 47.17 235.84 47.41Q235.74 47.66 235.72 48.12Q235.69 48.58 235.84 48.83Q235.94 49.07 236.28 49.34Q236.62 49.61 236.87 49.56M222.51 14.55Q222.46 14.45 222.46 14.28Q222.46 14.11 222.41 14.01Q222.31 13.82 222.27 13.75Q222.22 13.67 222.22 13.48Q222.31 13.33 222.61 13.33Q222.90 13.33 223.10 13.33Q223.24 13.53 223.49 13.87Q223.58 14.11 223.71 14.33Q223.83 14.55 223.93 14.79Q224.12 15.33 224.17 15.38Q224.22 15.43 224.22 15.53Q224.22 15.63 224.07 15.77Q223.93 15.92 223.73 15.92Q223.49 15.87 223.27 15.50Q223.05 15.14 222.90 14.94Q222.80 14.84 222.68 14.75Q222.56 14.65 222.51 14.55M205.81 21.73Q205.96 21.48 206.15 21.12Q206.35 20.75 206.25 20.36Q206.20 20.17 206.01 19.95Q205.81 19.73 205.62 19.51Q205.42 19.29 205.30 19.04Q205.18 18.80 205.27 18.46Q205.27 18.41 205.44 18.12Q205.62 17.82 205.71 17.77Q206.10 18.21 206.20 18.48Q206.30 18.75 206.40 18.99Q206.64 19.38 206.88 19.95Q207.13 20.51 207.37 21.00Q207.32 21.48 207.10 21.78Q206.88 22.07 206.69 22.56Q206.59 22.85 206.49 23.10Q206.40 23.34 206.35 23.68Q205.52 23.19 205.54 22.73Q205.57 22.27 205.81 21.73M225.10 18.95Q224.90 18.55 224.63 18.19Q224.37 17.82 224.27 17.43Q224.51 17.33 224.71 17.41Q224.90 17.48 225.15 17.43Q225.34 17.68 225.51 17.90Q225.68 18.12 225.88 18.36Q225.98 18.85 226.27 19.14Q226.56 19.43 226.81 19.82Q227.05 20.21 227.15 20.56Q227.25 20.90 227.49 21.29Q228.03 22.27 228.59 23.24Q229.15 24.22 229.74 25.20Q229.69 25.34 229.74 25.56Q229.79 25.78 229.83 26.03Q229.88 26.27 229.83 26.44Q229.79 26.61 229.59 26.66Q229.39 26.66 229.15 26.42Q228.91 26.17 228.86 26.07Q228.76 25.98 228.71 25.81Q228.66 25.63 228.56 25.49Q228.47 25.39 228.39 25.24Q228.32 25.10 228.22 25Q228.03 24.71 227.91 24.41Q227.78 24.12 227.64 23.88Q227.54 23.73 227.34 23.61Q227.15 23.49 227.05 23.34Q226.81 23.10 226.66 22.66Q226.51 22.22 226.42 21.83Q226.32 21.44 226.20 21.07Q226.07 20.70 225.93 20.36Q225.63 20.12 225.49 19.73Q225.34 19.34 225.10 18.95M199.90 40.19Q199.51 40.28 198.97 40.21Q198.44 40.14 198.54 39.75Q198.58 39.55 199.02 39.33Q199.46 39.11 199.71 39.11Q199.90 39.01 199.95 38.89Q200 38.77 200.15 38.67Q200.20 38.13 200.73 37.79Q200.88 37.50 201.03 37.23Q201.17 36.96 201.32 36.67Q201.46 37.65 201.12 38.35Q200.78 39.06 200.63 39.94Q200.24 40.14 199.90 40.19M211.67 38.67Q211.82 38.77 212.11 38.77Q212.40 38.77 212.70 38.79Q212.99 38.82 213.21 38.89Q213.43 38.96 213.48 39.21Q212.50 39.75 211.65 39.77Q210.79 39.79 210.01 39.84Q209.77 39.50 209.96 39.11Q210.16 38.72 210.06 38.28Q210.30 38.09 210.42 37.84Q210.55 37.60 210.74 37.40Q210.69 37.06 210.86 36.77Q211.04 36.47 211.38 36.57Q211.52 36.82 211.50 37.13Q211.47 37.45 211.45 37.74Q211.43 38.04 211.43 38.28Q211.43 38.53 211.67 38.67M195.95 49.41Q196.19 49.51 196.22 49.85Q196.24 50.20 196.34 50.63Q196.14 50.73 196.02 50.90Q195.90 51.07 195.61 50.98Q195.17 51.03 194.92 50.73Q194.68 50.44 194.43 50.29Q194.29 50.24 193.90 50.34Q193.65 50.34 193.33 50.32Q193.02 50.29 192.77 50.34Q192.53 50.39 192.43 50.37Q192.33 50.34 192.09 50.24Q191.89 50.15 191.75 50Q191.60 49.85 191.55 49.56Q191.46 49.17 191.58 48.73Q191.70 48.29 191.70 47.90Q191.70 47.66 191.67 47.41Q191.65 47.17 191.75 46.97Q191.80 46.88 191.94 46.73Q192.09 46.58 192.26 46.48Q192.43 46.39 192.58 46.41Q192.72 46.44 192.77 46.63Q192.82 46.92 192.75 47.31Q192.68 47.71 192.63 48.10Q192.58 48.49 192.65 48.85Q192.72 49.22 193.02 49.46Q193.55 49.41 193.68 49.49Q193.80 49.56 193.95 49.56Q194.38 49.61 194.97 49.39Q195.56 49.17 195.95 49.41M208.98 48.34Q209.33 48.29 209.62 48.49Q209.23 49.07 208.79 49.07Q208.06 49.76 207.71 50.12Q207.37 50.49 207.13 50.98Q207.08 51.56 206.88 52.00Q206.69 52.44 206.45 52.83Q206.15 52.83 205.86 53.03Q205.66 52.83 205.81 52.61Q205.96 52.39 205.86 52.05Q205.96 51.27 206.15 50.73Q206.40 50.20 206.35 50.02Q206.30 49.85 206.40 49.71Q206.45 49.56 206.59 49.41Q206.74 49.27 206.79 49.17Q207.37 48.83 207.98 48.71Q208.59 48.58 208.98 48.34M237.45 52.39Q237.65 52.34 237.92 52.59Q238.18 52.83 238.13 53.03Q237.74 53.66 237.38 53.81Q237.01 53.96 236.67 54.05Q236.47 54.10 236.30 54.13Q236.13 54.15 235.99 54.00Q236.23 53.27 236.57 52.91Q236.91 52.54 237.45 52.39M233.50 54.44Q233.59 54.54 233.91 54.49Q234.23 54.44 234.23 54.69Q234.23 54.88 233.64 55.08Q233.06 55.27 232.91 55.37L229.49 57.08Q229.39 57.23 229.20 57.25Q229.00 57.28 228.86 57.37Q228.66 57.47 228.54 57.62Q228.42 57.76 228.13 57.81Q227.88 57.86 227.64 57.74Q227.39 57.62 227.15 57.57Q226.90 57.57 226.73 57.59Q226.56 57.62 226.42 57.57Q225.63 57.37 225.07 56.74Q224.51 56.10 224.12 55.57Q224.12 55.32 224.02 55.22Q223.93 55.13 223.88 54.93Q223.39 54.64 223.22 54.42Q223.05 54.20 223.14 53.86Q223.24 53.66 223.49 53.56Q223.73 53.47 223.88 53.56Q224.27 53.66 224.46 54.15Q224.66 54.64 225 55.03Q225.24 55.42 225.63 55.74Q226.03 56.05 226.42 56.30Q226.66 56.35 226.90 56.45Q227.15 56.54 227.39 56.54Q227.93 56.49 228.42 56.32Q228.91 56.15 229.44 56.10Q230.81 55.76 231.69 55.30Q232.57 54.83 233.50 54.44Z"/></g></g></svg>